#!OML:ASF X:\für Bonn\!DataBase\2005_08_12_Daniel\c3d\Daniel.ASF
:FULLY-SPECIFIED
:DEGREES
156
root -18.497 18.2353 -17.5932 -175.694 -46.8609 173.609
lowerback 7.18773 -5.25434 -2.90563
upperback 1.67454 -7.31717 -1.20725
thorax -2.07105 -3.66942 1.00435
lowerneck -9.69012 3.53529 -4.98412
upperneck 3.94965 5.24404 1.16678
head 2.80116 2.55626 1.52834
rclavicle -1.03064e-013 7.45443e-016
rhumerus -70.7698 15.3899 -96.7177
rradius 78.9965
rwrist -9.07554
rhand -19.0839 24.8491
rfingers 7.12502
rthumb 7.2242 -5.00759
lclavicle -1.03064e-013 7.45443e-016
lhumerus -59.8875 -13.4082 95.5646
lradius 119.475
lwrist 12.8072
lhand -7.41048 -15.9887
lfingers 7.12502
lthumb 18.476 13.1539
rfemur -25.1539 6.69511 18.0269
rtibia 29.594
rfoot -8.09001 -11.9886
rtoes -3.72079
lfemur 13.4773 -0.455551 -25.7611
ltibia 51.1657
lfoot 6.7632 2.44617
ltoes -6.32238
157
root -18.7564 18.1241 -17.8347 -176.691 -46.4851 174.06
lowerback 7.95843 -4.99617 -2.43377
upperback 1.89927 -6.96741 -1.11347
thorax -2.32148 -3.49908 0.880498
lowerneck -9.52787 3.45933 -5.08267
upperneck 3.47739 5.13657 1.15097
head 2.61206 2.5074 1.51873
rclavicle -1.47854e-013 3.86388e-015
rhumerus -69.698 15.1818 -96.0555
rradius 77.8989
rwrist -8.52465
rhand -19.3034 24.401
rfingers 7.12502
rthumb 7.01228 -5.46281
lclavicle -1.47854e-013 3.86388e-015
lhumerus -60.5522 -12.8824 95.9269
lradius 118.625
lwrist 12.6707
lhand -6.96136 -16.0166
lfingers 7.12502
lthumb 18.908 13.0844
rfemur -24.9456 5.39527 19.0385
rtibia 31.3844
rfoot -7.33822 -9.856
rtoes -0.77382
lfemur 13.056 0.0435441 -25.1619
ltibia 54.4662
lfoot 6.60855 2.47561
ltoes -5.70047
158
root -19.0142 18.0086 -18.075 -177.731 -46.1196 174.545
lowerback 8.76906 -4.73136 -1.93407
upperback 2.1314 -6.6022 -1.00862
thorax -2.5832 -3.32262 0.746155
lowerneck -9.33179 3.37071 -5.14231
upperneck 2.9518 5.00619 1.07807
head 2.40313 2.44608 1.48103
rclavicle 1.57375e-013 -1.63997e-015
rhumerus -68.7562 14.8993 -95.3449
rradius 76.9177
rwrist -7.83154
rhand -19.4656 24.1143
rfingers 7.12502
rthumb 6.85574 -5.75468
lclavicle 1.57375e-013 -1.63997e-015
lhumerus -61.0729 -12.291 96.2461
lradius 117.667
lwrist 12.6326
lhand -6.47558 -16.0016
lfingers 7.12502
lthumb 19.3751 13.0531
rfemur -24.6022 4.10555 20.1365
rtibia 33.4074
rfoot -7.20569 -7.74571
rtoes 1.04613
lfemur 12.4771 0.603727 -24.4577
ltibia 57.9423
lfoot 6.58417 2.42257
ltoes -5.65865
159
root -19.2692 17.8805 -18.3111 -178.818 -45.7659 175.067
lowerback 9.63267 -4.47779 -1.39483
upperback 2.37831 -6.24413 -0.901209
thorax -2.85657 -3.15187 0.588507
lowerneck -9.14409 3.2957 -5.14829
upperneck 2.41572 4.88729 0.985706
head 2.19502 2.39044 1.4291
rclavicle 2.42766e-014 7.45443e-015
rhumerus -67.8113 14.4746 -94.6731
rradius 75.9778
rwrist -6.95888
rhand -19.6649 24.0414
rfingers 7.12502
rthumb 6.66334 -5.83374
lclavicle 2.42766e-014 7.45443e-015
lhumerus -61.3878 -11.6987 96.4572
lradius 116.521
lwrist 12.6544
lhand -6.05428 -15.896
lfingers 7.12502
lthumb 19.7802 13.1175
rfemur -24.1134 2.84974 21.2302
rtibia 35.5566
rfoot -7.71215 -5.79869
rtoes 2.62254
lfemur 11.7327 1.24874 -23.6094
ltibia 61.593
lfoot 6.62449 2.30625
ltoes -5.98022
160
root -19.5187 17.7396 -18.5427 -179.892 -45.4541 175.579
lowerback 10.568 -4.24194 -0.860866
upperback 2.59684 -5.90339 -0.783573
thorax -3.19021 -2.99029 0.444644
lowerneck -8.92896 3.22625 -5.10412
upperneck 1.8608 4.76908 0.836918
head 1.97939 2.33379 1.3501
rclavicle 1.44864e-014 -6.95746e-015
rhumerus -66.7217 14.0007 -94.0371
rradius 75.0308
rwrist -6.11019
rhand -19.8393 24.133
rfingers 7.12502
rthumb 6.49496 -5.7474
lclavicle 1.44864e-014 -6.95746e-015
lhumerus -61.713 -11.0787 96.6381
lradius 115.335
lwrist 12.729
lhand -5.68046 -15.608
lfingers 7.12502
lthumb 20.1395 13.3681
rfemur -23.5128 1.91166 22.1916
rtibia 37.7581
rfoot -9.03783 -4.13855
rtoes 3.56559
lfemur 10.7945 1.88998 -22.6854
ltibia 65.3878
lfoot 6.59852 2.0758
ltoes -6.54493
161
root -19.7656 17.5965 -18.774 -180.977 -45.1723 176.108
lowerback 11.5013 -3.99732 -0.281421
upperback 2.82327 -5.53881 -0.682584
thorax -3.51359 -2.81964 0.245097
lowerneck -8.71783 3.13358 -5.01241
upperneck 1.32827 4.61448 0.687633
head 1.77559 2.25905 1.26331
rclavicle -5.15349e-014 7.15625e-015
rhumerus -65.6177 13.3638 -93.4559
rradius 74.2583
rwrist -5.35163
rhand -19.9717 24.4399
rfingers 7.12502
rthumb 6.36716 -5.44438
lclavicle -5.15349e-014 7.15625e-015
lhumerus -61.8534 -10.6316 96.7279
lradius 113.887
lwrist 12.894
lhand -5.51401 -15.1079
lfingers 7.12502
lthumb 20.2995 13.8513
rfemur -22.7338 1.34219 23.0485
rtibia 39.9015
rfoot -11.1269 -2.84332
rtoes 4.21363
lfemur 9.70575 2.4253 -21.7366
ltibia 69.2032
lfoot 6.42673 1.76014
ltoes -7.11447
162
root -20.0086 17.4567 -19.0048 -182.028 -44.9726 176.643
lowerback 12.4121 -3.75719 0.333332
upperback 3.03574 -5.16602 -0.584493
thorax -3.83427 -2.64688 0.0104828
lowerneck -8.53039 3.00206 -4.94572
upperneck 0.849921 4.41167 0.560769
head 1.59556 2.15983 1.18949
rclavicle 2.76808e-014 -4.77083e-015
rhumerus -64.5387 12.6743 -92.9705
rradius 73.7394
rwrist -4.83666
rhand -20.0352 24.7457
rfingers 7.12502
rthumb 6.30582 -5.14041
lclavicle 2.76808e-014 -4.77083e-015
lhumerus -61.9752 -10.2436 96.8169
lradius 112.3
lwrist 13.019
lhand -5.44466 -14.5067
lfingers 7.12502
lthumb 20.3661 14.4453
rfemur -21.7791 0.882593 23.8657
rtibia 41.8899
rfoot -13.7379 -2.24435
rtoes 3.93826
lfemur 8.43114 2.77104 -20.8071
ltibia 72.9315
lfoot 6.11288 1.41928
ltoes -7.24425
163
root -20.2472 17.3181 -19.2349 -183.026 -44.8446 177.149
lowerback 13.2769 -3.52502 0.916483
upperback 3.23396 -4.79754 -0.48464
thorax -4.13309 -2.47768 -0.21677
lowerneck -8.28495 2.86836 -4.85074
upperneck 0.362686 4.20041 0.400761
head 1.40466 2.05592 1.09979
rclavicle 3.33461e-014 1.39149e-015
rhumerus -63.5362 12.0278 -92.6277
rradius 73.5106
rwrist -4.55801
rhand -20.0621 24.9853
rfingers 7.12502
rthumb 6.27989 -4.9016
lclavicle 3.33461e-014 1.39149e-015
lhumerus -62.1137 -9.81626 96.8786
lradius 110.593
lwrist 13.0423
lhand -5.55311 -13.7842
lfingers 7.12502
lthumb 20.2619 15.179
rfemur -20.6664 0.388027 24.6163
rtibia 43.6586
rfoot -16.4207 -1.8451
rtoes 3.18307
lfemur 6.99628 3.00956 -19.8896
ltibia 76.5936
lfoot 5.58519 1.15059
ltoes -7.06817
164
root -20.4833 17.1956 -19.4681 -183.977 -44.8084 177.668
lowerback 14.0693 -3.32028 1.47666
upperback 3.40472 -4.45783 -0.379279
thorax -4.41147 -2.32333 -0.433088
lowerneck -8.02303 2.72765 -4.69918
upperneck -0.0897765 3.975 0.223876
head 1.22467 1.94458 0.996605
rclavicle -1.83876e-015 7.35503e-015
rhumerus -62.5834 11.5058 -92.4779
rradius 73.571
rwrist -4.60515
rhand -19.9836 25.039
rfingers 7.12502
rthumb 6.35561 -4.84568
lclavicle -1.83876e-015 7.35503e-015
lhumerus -62.3194 -9.30976 96.9337
lradius 108.765
lwrist 12.9029
lhand -5.85385 -13.1659
lfingers 7.12502
lthumb 19.9728 15.8276
rfemur -19.4465 0.0350519 25.2697
rtibia 45.155
rfoot -19.0504 -1.6063
rtoes 2.69546
lfemur 5.43643 3.1854 -18.9058
ltibia 80.083
lfoot 4.90487 0.820147
ltoes -6.70634
165
root -20.717 17.0899 -19.7083 -184.827 -44.8953 178.144
lowerback 14.7151 -3.15544 1.88549
upperback 3.57651 -4.18508 -0.231453
thorax -4.59042 -2.2013 -0.524035
lowerneck -7.83126 2.60818 -4.54823
upperneck -0.459946 3.78352 0.0116296
head 1.08346 1.84804 0.887996
rclavicle 3.73218e-014 -2.50469e-014
rhumerus -61.6629 11.1507 -92.4476
rradius 73.9444
rwrist -4.79657
rhand -19.8078 24.7796
rfingers 7.12502
rthumb 6.52533 -5.09986
lclavicle 3.73218e-014 -2.50469e-014
lhumerus -62.5016 -8.69019 96.9814
lradius 106.86
lwrist 12.6476
lhand -6.32594 -12.6034
lfingers 7.12502
lthumb 19.519 16.4368
rfemur -18.1235 -0.112168 25.8207
rtibia 46.3455
rfoot -21.5033 -1.53308
rtoes 2.43943
lfemur 3.76801 3.28028 -17.9344
ltibia 83.3403
lfoot 4.19992 0.360378
ltoes -6.07878
166
root -20.9498 16.9993 -19.9549 -185.557 -45.1019 178.586
lowerback 15.1877 -3.02927 2.1834
upperback 3.73401 -3.97609 -0.0684318
thorax -4.68066 -2.10884 -0.538038
lowerneck -7.72057 2.51257 -4.33067
upperneck -0.699223 3.62651 -0.252293
head 0.999094 1.76619 0.757915
rclavicle -4.53229e-014 -5.56597e-015
rhumerus -60.7636 10.971 -92.5793
rradius 74.573
rwrist -5.12134
rhand -19.6397 24.2064
rfingers 7.12502
rthumb 6.68765 -5.66801
lclavicle -4.53229e-014 -5.56597e-015
lhumerus -62.6258 -7.98292 97.0102
lradius 104.988
lwrist 12.2204
lhand -6.93517 -12.0038
lfingers 7.12502
lthumb 18.9332 17.0948
rfemur -16.6589 -0.171364 26.3318
rtibia 47.1765
rfoot -23.6808 -1.60083
rtoes 2.1668
lfemur 1.95519 3.25587 -17.0093
ltibia 86.332
lfoot 3.41287 -0.174407
ltoes -5.52071
167
root -21.1832 16.927 -20.2066 -186.187 -45.3816 179.008
lowerback 15.5449 -2.90914 2.44265
upperback 3.85649 -3.77709 0.0958116
thorax -4.74182 -2.01951 -0.534209
lowerneck -7.61831 2.40537 -4.07476
upperneck -0.87221 3.45409 -0.550906
head 0.938322 1.67554 0.612385
rclavicle -1.70955e-014 -1.19271e-014
rhumerus -59.7778 10.8143 -92.8019
rradius 75.2994
rwrist -5.43924
rhand -19.5696 23.4001
rfingers 7.12502
rthumb 6.75532 -6.4721
lclavicle -1.70955e-014 -1.19271e-014
lhumerus -62.7237 -7.26447 97.0706
lradius 103.256
lwrist 11.7122
lhand -7.5818 -11.2898
lfingers 7.12502
lthumb 18.3112 17.8684
rfemur -15.0533 -0.199783 26.811
rtibia 47.6304
rfoot -25.6056 -1.69245
rtoes 1.93206
lfemur -0.0150084 3.08817 -16.2013
ltibia 89.028
lfoot 2.68757 -0.829878
ltoes -5.2506
